Coordinates
version=1
nRows=10
nColumns=63
inDegrees=yes

Units are S.I. units (second, meters, Newtons, ...)
If the header above contains a line with 'inDegrees', this indicates whether rotational values are in degrees (yes) or radians (no).

endheader
time	pelvis_tilt	pelvis_list	pelvis_rotation	pelvis_tx	pelvis_ty	pelvis_tz	hip_flexion_r	hip_adduction_r	hip_rotation_r	knee_angle_r	knee_angle_r_beta	ankle_angle_r	subtalar_angle_r	mtp_angle_r	hip_flexion_l	hip_adduction_l	hip_rotation_l	knee_angle_l	knee_angle_l_beta	ankle_angle_l	subtalar_angle_l	mtp_angle_l	L5_S1_Flex_Ext	L5_S1_Lat_Bending	L5_S1_axial_rotation	L4_L5_Flex_Ext	L4_L5_Lat_Bending	L4_L5_axial_rotation	L3_L4_Flex_Ext	L3_L4_Lat_Bending	L3_L4_axial_rotation	L2_L3_Flex_Ext	L2_L3_Lat_Bending	L2_L3_axial_rotation	L1_L2_Flex_Ext	L1_L2_Lat_Bending	L1_L2_axial_rotation	L1_T12_Flex_Ext	L1_T12_Lat_Bending	L1_T12_axial_rotation	Abs_r3	Abs_r2	Abs_r1	Abs_t1	Abs_t2	neck_flexion	neck_bending	neck_rotation	arm_flex_r	arm_add_r	arm_rot_r	elbow_flex_r	pro_sup_r	wrist_flex_r	wrist_dev_r	arm_flex_l	arm_add_l	arm_rot_l	elbow_flex_l	pro_sup_l	wrist_flex_l	wrist_dev_l
0.000000	1.261297	-6.254508	92.512839	0.283919	0.764579	0.838145	-1.321716	0.989521	-3.620686	7.878500	0.137506	24.707417	10.001569	0.000000	-4.680400	-2.724470	7.853628	0.721704	0.012596	21.141527	-14.711174	0.000000	-0.156236	0.496819	1.589724	-0.290145	0.660769	1.689081	-0.256679	1.207966	1.689081	-0.178562	1.207966	1.391008	-0.145080	1.013113	1.291650	-0.089273	0.769573	1.192293	-1.115975	5.620116	8.841566	0.000000	0.000000	28.033176	-4.215279	9.435677	11.271160	-10.262626	155.239502	5.678920	3.933993	1.251337	-6.146202	-4.339656	-14.376797	30.634744	38.958291	86.687641	-10.046668	0.961153
0.016949	0.908149	-5.906890	91.614150	0.285316	0.765305	0.837202	-1.848083	0.741605	-0.284974	7.508901	0.131055	24.321416	6.940347	0.000000	-5.267327	-2.292925	6.450536	0.779453	0.013604	21.179966	-14.376961	0.000000	-0.203467	0.447351	1.686198	-0.377859	0.594976	1.791585	-0.334277	1.087689	1.791585	-0.232543	1.087689	1.475423	-0.188940	0.912238	1.370036	-0.116261	0.692946	1.264648	-1.453348	5.060521	9.378127	0.000000	0.000000	26.991309	-4.941368	8.828655	11.075341	-9.627601	151.757746	5.072794	3.228862	1.030766	-6.610956	-4.240680	-14.117567	29.391537	37.849689	87.999211	-8.666479	0.703992
0.033898	0.608352	-5.624922	90.952476	0.286491	0.765897	0.836421	-2.296800	0.539495	2.415367	7.161130	0.124985	24.016543	4.378375	0.000000	-5.730166	-1.947496	5.305072	0.810137	0.014140	21.232626	-13.991987	0.000000	-0.239141	0.401680	1.737878	-0.444108	0.534234	1.846495	-0.392884	0.976645	1.846495	-0.273314	0.976645	1.520643	-0.222066	0.819106	1.412026	-0.136645	0.622202	1.303408	-1.708157	4.543885	9.665555	0.000000	0.000000	26.134314	-5.394497	8.372475	10.974629	-9.130425	148.132983	4.879293	2.604998	0.838431	-7.015732	-3.998841	-13.874621	28.812729	36.624113	88.558015	-7.592584	0.246239
0.050847	0.356454	-5.405288	90.505582	0.287457	0.766369	0.835811	-2.669300	0.376847	4.523723	6.837703	0.119340	23.786934	2.288630	0.000000	-6.075493	-1.678542	4.397606	0.818898	0.014292	21.295844	-13.567785	0.000000	-0.264258	0.359534	1.749717	-0.490754	0.478180	1.859074	-0.434150	0.874171	1.859074	-0.302021	0.874171	1.531002	-0.245390	0.733162	1.421645	-0.150997	0.556918	1.312288	-1.887569	4.067119	9.731401	0.000000	0.000000	25.447705	-5.605167	8.048091	10.958322	-8.758633	144.372928	5.057966	2.114009	0.659671	-7.362633	-3.627306	-13.646965	28.838778	35.306402	88.438163	-6.799073	-0.381776
0.067797	0.147004	-5.244674	90.251237	0.288226	0.766733	0.835377	-2.967015	0.247316	6.083479	6.541139	0.114164	23.626730	0.644091	0.000000	-6.309882	-1.476419	3.708509	0.810877	0.014152	21.365958	-13.115887	0.000000	-0.279823	0.320639	1.726670	-0.519660	0.426450	1.834586	-0.459721	0.779602	1.834586	-0.319810	0.779602	1.510836	-0.259844	0.653848	1.402919	-0.159891	0.496670	1.295002	-1.998749	3.627136	9.603218	0.000000	0.000000	24.916998	-5.603881	7.836455	11.015717	-8.499761	140.485295	5.568361	1.807506	0.479828	-7.653763	-3.139240	-13.433601	29.410145	33.921398	87.713767	-6.260036	-1.149721
0.084746	-0.025450	-5.139762	90.167204	0.288811	0.767002	0.835128	-3.191375	0.144558	7.138021	6.273953	0.109501	23.530069	-0.582265	0.000000	-6.439907	-1.331487	3.218151	0.791213	0.013809	21.439307	-12.647827	0.000000	-0.286839	0.284723	1.673689	-0.532689	0.378682	1.778295	-0.471248	0.692276	1.778295	-0.327828	0.692276	1.464478	-0.266359	0.580607	1.359872	-0.163900	0.441036	1.255267	-2.048863	3.220844	9.308556	0.000000	0.000000	24.527709	-5.421141	7.718522	11.136111	-8.341342	136.477799	6.370026	1.737098	0.284241	-7.891225	-2.547809	-13.233534	30.467287	32.493941	86.458939	-5.949563	-2.027266
0.101695	-0.166359	-5.087237	90.231252	0.289226	0.767187	0.835071	-3.343813	0.062229	7.730734	6.038663	0.105395	23.491089	-1.417460	0.000000	-6.472143	-1.234103	2.906903	0.765047	0.013353	21.512228	-12.175135	0.000000	-0.286309	0.251512	1.595729	-0.531705	0.334511	1.695462	-0.470377	0.611527	1.695462	-0.327223	0.611527	1.396263	-0.265867	0.512884	1.296530	-0.163597	0.389593	1.196797	-2.045077	2.845157	8.874967	0.000000	0.000000	24.265351	-5.087449	7.675243	11.308801	-8.270911	132.358154	7.422509	1.954393	0.058251	-8.077123	-1.866178	-13.045766	31.950666	31.048872	84.747791	-5.841745	-2.984078
0.118644	-0.281175	-5.083784	90.421146	0.289483	0.767303	0.835212	-3.425761	-0.006016	7.905006	5.837785	0.101889	23.503931	-1.888517	0.000000	-6.413165	-1.174625	2.755135	0.737521	0.012872	21.581060	-11.709345	0.000000	-0.279236	0.220734	1.497744	-0.518570	0.293576	1.591353	-0.458757	0.536692	1.591353	-0.319139	0.536692	1.310526	-0.259299	0.450120	1.216917	-0.159556	0.341917	1.123308	-1.994557	2.496985	8.330002	0.000000	0.000000	24.115442	-4.633308	7.687573	11.523086	-8.276004	128.134075	8.685358	2.511003	-0.212801	-8.213561	-1.107513	-12.869301	33.800739	29.611031	82.654434	-5.910671	-3.989828
0.135593	-0.375347	-5.126086	90.714652	0.289596	0.767361	0.835559	-3.438651	-0.066522	7.704222	5.673836	0.099027	23.562731	-2.022459	0.000000	-6.269547	-1.143410	2.743218	0.713773	0.012458	21.642141	-11.261989	0.000000	-0.266624	0.192115	1.384687	-0.495148	0.255512	1.471230	-0.438037	0.467108	1.471230	-0.304725	0.467108	1.211601	-0.247587	0.391760	1.125058	-0.152349	0.297586	1.038515	-1.904470	2.173239	7.701213	0.000000	0.000000	24.063495	-4.089220	7.736465	11.768263	-8.344155	123.813276	10.118123	3.458535	-0.543576	-8.302642	-0.284979	-12.703143	35.957966	28.205259	80.252978	-6.130432	-5.014185
0.152542	-0.454329	-5.210828	91.089537	0.289576	0.767375	0.836120	-3.383914	-0.125631	7.171767	5.549334	0.096854	23.661630	-1.846307	0.000000	-6.047864	-1.130816	2.851522	0.698946	0.012199	21.691809	-10.844600	0.000000	-0.249476	0.165382	1.261512	-0.463301	0.219958	1.340356	-0.409864	0.402109	1.340356	-0.285126	0.402109	1.103823	-0.231663	0.337246	1.024978	-0.142550	0.256176	0.946134	-1.781980	1.870831	7.016150	0.000000	0.000000	24.095026	-3.485688	7.802872	12.033629	-8.462899	119.403473	11.680351	4.848599	-0.948732	-8.346470	0.588257	-12.546296	38.362808	26.856398	77.617537	-6.475118	-6.026816
